<svg version="1.2" xmlns="http://www.w3.org/2000/svg" viewBox="0 0 2048 2048" width="2048" height="2048">
	<title>xmart</title>
	<style>
		.s0 { opacity: .28;fill: #ead7eb } 
		.s1 { opacity: .62;fill: #e8eee8 } 
		.s2 { opacity: .85;fill: #e305e2 } 
		.s3 { opacity: .97;fill: #c4bb40 } 
		.s4 { opacity: .99;fill: #50ac45 } 
		.s5 { opacity: 1;fill: #7e8d87 } 
		.s6 { opacity: 1;fill: #d8d1de } 
		.s7 { opacity: 1;fill: #bba2c6 } 
		.s8 { opacity: 1;fill: #6f3c89 } 
		.s9 { opacity: 1;fill: #71388c } 
		.s10 { opacity: 1;fill: #fafcf9 } 
	</style>
	<g id="Capa 1">
		<path id="Path 0" fill-rule="evenodd" class="s0" d="m1536 817v-1h2v1zm42-1h1v1h-1zm-43 60l1-10v10zm-238 300v-1l5 2zm320 33l-1-12h1l1 12zm-357 25l1-3v5zm-14 13l-1-3 1 2zm236 26l-2-1h2zm118 0v-1h2zm-318 1v-1h3v1zm301 0v-1h2v1z"/>
		<path id="Path 1" fill-rule="evenodd" class="s1" d="m1538 817v-1h20v1zm-2 218l-2-125 2 101zm-1134 45h1v1h-1zm1118 107l1-43v39zm-248-10l11-3 14 1v1l-25 2zm308 1l6-3 19-1 13 4-16-3zm-72 1l-4-2 5 2zm-55 70l-6-20 1-17 5-16 11-12-10 13-5 16v21zm-123-20l-1-19-6-16 8 20zm280-16l7-4h1zm-38 8l6-4 32-4zm-247 9v-1h5zm240 35l-5-4-4-11 1-13 4-6-3 22zm-257-15l5-8-4 8zm-32 6l-6-2-6-10zm17 2l7-2v1zm-40 1v-1l11 10zm386 2l1 2h-1zm1 3h1v3h-1zm-342 8l13-4-13 5zm-20 1l-6-2 6 1zm299-1h3v1zm-286 1l1-1 3 1v1h-10v-1zm191 0v-1h2v1zm110 0l5-1v1l-1 1h-4zm6 0v-1h2v1z"/>
		<path id="Path 2" fill-rule="evenodd" class="s2" d="m1538 1170l1 85-1-31zm-295 65l-1-9h1zm279 35l-1-6h1zm-26 3v-1h4zm-9 1v-1h2v1zm6-1h1v1h-1z"/>
		<path id="Path 3" class="s3" d="m1568 1191l2-3 5 1-2 8-4-1zm-30 33l-3-3 3-9zm-247 48h1v1h-1zm306 0h1v1h-1z"/>
		<path id="Path 4" class="s4" d="m1521 1144v-4h4 11l2 1v15 14 42l-3 9 3 3 1 31-1 16-16-1v-6-9l-5 7-4 4-3 2-2 1-7 3h-1-4-1-11-2-2-1l-5-2-2-1-8-5-4-4-5-7-2-4-4-15v-21l5-16 10-13 2-2 5-3 5-2 12-2 16 2 4 2 13 13v-9zm59 34l22-3 16 3 14 9 4 9 1 12v8 24l2 22v1l1 3v1 3l-5 1-13-2-1-11-8 8-9 5-5 1h-1-1l-5 1h-7-1l-4-1h-3-1l-3-1-3-2-3-2-2-2-7-12 3-22 2-3 3-3 5-4h1l38-8 8-4-1-12-3-5-13-4-13 2-5 5-3 5-1 4-2 2h-13l-2-1v-7l1-2 5-5 1 5 4 1 2-8-5-1 1-4zm-308 0l25-2 5 1 6 2 4 3 9 9 2 3 6 16 1 19h-5-18l-35 1h-1l-12-1 1 5 1 2 3 8 6 10 6 2h1l7 2h9l7-1 4-3 5-4 4-8h16l-4 13-2 3-1 2-5 4-6 4-13 4-2 1h-1l-3-1h-1l-1 1h-4-1-1-3-1l-1-1h-1l-6-1-8-3-11-10-7-12-1-2v-1l-1-3-1-5v-9-12-3l1-3v-1l4-8 4-8 4-4 2-2 6-4 4-2z"/>
		<path id="Path 5" class="s5" d="m1563 1196l4-10 13-8-9 6-1 4-2 3zm-317 51v-1l7 12v1z"/>
		<path id="Path 6" class="s6" d="m1521 1183v9l-13-13h1l11 8zm62 12l5-5 13-2 13 4 3 5h-1l-11-7h-11zm54 21v-8h1v8zm-365 14l35-1v1zm367 32l-2-22h1l1 21zm-335-8l4-4h1zm-4 2l4-2-4 3zm313 10l8-8 1 11-2-7zm27 0l-1-3h1v1zm0 4v-3h1v3zm-359 3h3-2zm304 0h7v1h-7z"/>
		<path id="Path 7" class="s7" d="m407 879l-2-3 53 2-42-1zm136-2l50-1-1 2-18-1zm-141 205v-1h1l23 1zm862 99l4-3v1zm373 27l-1-12 2 12zm0 32v-24h1v24zm-377-6l-1-5 12 1-10 1zm47-4v-1h18v1zm292 42l5-1-2 1h-2z"/>
		<path id="Path 8" class="s8" d="m1579 824h-5l-2-7h6 1zm-1172 55l9-2v5l-4 4zm173 17l-6-4v-15l18 1zm1000 138l-10-2v-75l9-3v20 46zm-44 1v-24l6 1v33l-4 3zm-958 47l-1-19-5-2-8-19-6-1-3-4 1-17 42 61zm-164-18l22 1 4 7h10l5-18 14 2-16 26h-27l-23-1v-1zm854 114l4-1v1l-4 1zm227 94h1v1h-1z"/>
		<path id="Path 9" class="s9" d="m1536 864v-47h2 20 14l2 7h5v52h5l45 1v33h-50v44l-9 3v75l10 2 9 13 7 3 32-1v5 29l-24 3h-13l-19-2-16-7-12-12-6-17 4-3v-33l-6-1-2-101h-32v-28-5l34-1v-10zm-1124 22l4-4v-5l42 1 40 65 4 1 41-67h31v15l6 4-53 79 29 45-1 17 3 4 6 1 8 19 5 2 1 19h-32l-46-73-31 47-14-2-5 18h-10l-4-7-22-1 57-84 1-6zm830 340l1-12v12zm247 48v-1h4v1z"/>
		<path id="Path 10" class="s10" d="m1558 817v-1h20v1h-6zm-41 445l5-7v9h-1l-1-4zm-239 10h1v1h-1zm18 1l2-1v1zm188 0v-1h11v1h-1-1-4-2zm96 0v-1l4 1h-1z"/>
		<path id="Path 11" class="s0" d="m1324 955v-12l1 12zm-383 18v-11h1v11zm223 193l1-5v5zm241 10v-1l3 1zm-260 31v-14l1 14zm267 7l-5-18 5 7 1 11zm-44-6l2-2-1 2z"/>
		<path id="Path 12" fill-rule="evenodd" class="s1" d="m941 962v-13l1 13zm384 84l-1-62h1zm-119 112l-2-11 2-8zm-75 20l14-2 1-27 18 1h-17v27zm92-20l-4 2-13-2zm-37 32l-1-12h-21v-12h1v10l22 2zm302-15h0.4l-12.4 2zm7-1l9 3-15.6-2zm-113 3l5-2v1zm-33 25v-25h16l-1 1h-14v24zm75 68l5-1v-65.6l2 7.6v56l-2 4h-5zm5-66.6l-3-11.4 3 10zm-62 22.6l1-18h1zm-182 31l-13 1-4-3zm165 13l-1-15h1zm-164-4v-8l1 8zm37 4l-12 2-5-2zm-55 3l-7-2 7 1zm9-1l8-1h1l-9 2zm195-190v-205 89zm-165 57h14-1z"/>
		<path id="Path 13" fill-rule="evenodd" class="s2" d="m1205 1189v-10h1zm0 21v-18l1 18zm144 45v-53h1v53zm-203-16l-1-32h1zm59-11v-11h1v11zm-41 15l1-1v8zm42 27l-1-25h1zm84 2h1v1h-1z"/>
		<path id="Path 14" fill-rule="evenodd" class="s3" d="m1324 984v-29h1v29zm-382 4l-1-15h1zm280 170l-2-19h1l3 2-1 17zm199 113l3-1v1zm-142 1h1v1h-1z"/>
		<path id="Path 15" class="s4" d="m1206 1158v-19h1 13l2 19zm-75 20l16-1v-27h17l1 11-1 5v12h21l1 12h-9l-14 2 1 51 1 7 3 5 4 3 13-1 1 1v8l-1 5-8 1h-9l-7-1-6-3-1-1-7-8-1-9 1-59h-15zm256-2l12-1 6 1h3l4 1 4 3 7 7 3 5 3 10v67l-5 1-3 1-9-2 2-37-1-18-1-11-5-7-9-5h-13l-3 1-2 1-6 5-4 8-2 2-1 18v6l-1 38h-16v-15-53-24h14l2 14 9-11 3-2 4-2zm-181 3l10-3h2l4 1 1 92v1h-17v-25-17-11-7l-1-18v-3z"/>
		<path id="Path 16" class="s6" d="m1387 1175l12-1v1l-12 1zm-23 3l1-1 2 1 1 7 7-4-9 11zm-188 14l1-2h9zm236 40v-1l2 1-2 37z"/>
		<path id="Path 17" fill-rule="evenodd" class="s7" d="m1502 877l33-1h1zm-86 36l-3 7v-12l1 6zm-650 22l10-2 1 3h-34zm633 240v-1l6 1v1zm-194 4l1-3h10l-10 3zm-60 14l-15-2 1-13 1 13h15l-1 59v-43zm19 50l-1-51 14-2-1 2-11 1v49zm248-29h1l1 18-2-1zm-227 57l1-5h1l-1 5zm145-190h-42 30z"/>
		<path id="Path 18" class="s8" d="m766 935v-12l7-4 3 14zm336 147v-113l2-3h7v116zm270 0v-116l8 2v114zm35 0v-77l8-1v78zm-625-60l-6-2v-7l4-1zm-164 30l-6-10-4-22h20zm197-4v-19l7 3v12l-2 4zm503 33v-21l8-2 3 19 1 3v1zm-113 164v-17h1v17z"/>
		<path id="Path 19" class="s9" d="m616 926l4-19 14-18 24-13 28-4h14l22 2 23 9 17 14 11 22-7 4v12l-23 1-8-1-7-17-10-8-16-5h-20l-20 10-5 13 1 9 15 14 60 15 21 9 19 17 7 20-4 1v7l6 2-2 18-10 20-20 17-31 10-36 1-29-6-22-12-14-18 10-32h22l5 17 8 9 27 9h14l17-3 12-8 6-13-4-17-13-10-62-16-22-10-16-16-6-20zm240-49l1 27 15-18 17-10 16-4h24l28 10 12 11 8 13 13-18 23-13 40-3 16 4 19 11 15 20 7 23 1 36h-7l-2 3v113h-34v-137l-7-20-10-10-13-5-24 1-15 8-11 16-4 20v127h-42v-94-15-11l-1-13-3-17-11-15-17-7h-16l-16 6-10 9-8 17-2 13-1 127h-42v-34h5l2-4v-12l-7-3v-152zm300 52l7-23 18-19 30-13 24-2h13l27 3 28 14 16 22 5 32v12 29l1 62 1 12-8 2v21h-30l-6-24-11 14-17 10-28 7-30-1-30-13-16-22-4-16v-18l11-26 13-12 20-10 51-10 3-1 27-7 10-13v-9l-5-11-9-8-14-5h-27l-14 5-11 10-5 18-41-1v-3-3zm260-16l8-17 12-12 14-8 18-3h13 6v42l-35 4-14 7-12 12-10 25-1 41-8 1v77h-27v-114l-8-2v-89h7 34v31 12zm-211 304v-7h1v7zm80 55h1v1h-1z"/>
		<path id="Path 20" class="s10" d="m1280 1189h14l9 4 10 14 1 10-55-1 6-17zm208 0l14 1 14 10 5 12 1 18-4 15-13 12-20 1-12-8-8-19 1-21 10-16zm131 33v21l-11 14-9 3-16-1-9-11 3-13 7-5 27-4zm-451 51v-1h9v1z"/>
		<path id="Path 21" class="s0" d="m1412 1232v-6 5z"/>
		<path id="Path 22" class="s1" d="m1154 1267h1v1h-1z"/>
		<path id="Path 23" class="s7" d="m815 1082v-205 152 19z"/>
		<path id="Path 24" class="s10" d="m1281 973l-1 49-10 18-10 8-19 7h-28l-11-4-8-7-5-14 1-14 14-17 15-6 48-10z"/>
	</g>
</svg>